<svg width="24" height="14" viewBox="0 0 24 14" fill="none" xmlns="http://www.w3.org/2000/svg">
<path d="M16.6667 7.0752C16.6667 9.25137 14.5792 11.0127 12 11.0127C9.42083 11.0127 7.33333 9.25137 7.33333 7.0752C7.33333 4.89902 9.42083 3.1377 12 3.1377C14.5792 3.1377 16.6667 4.89902 16.6667 7.0752ZM11.3333 5.9502V8.2002H11C10.6333 8.2002 10.3333 8.45332 10.3333 8.7627C10.3333 9.07207 10.6333 9.3252 11 9.3252H13C13.3667 9.3252 13.6667 9.07207 13.6667 8.7627C13.6667 8.45332 13.3667 8.2002 13 8.2002H12.6667V5.3877C12.6667 5.07832 12.3667 4.8252 12 4.8252H11.3333C10.9667 4.8252 10.6667 5.07832 10.6667 5.3877C10.6667 5.69707 10.9667 5.9502 11.3333 5.9502ZM0 2.5752C0 1.33242 1.19375 0.325195 2.66667 0.325195H21.3333C22.8042 0.325195 24 1.33242 24 2.5752V11.5752C24 12.8162 22.8042 13.8252 21.3333 13.8252H2.66667C1.19375 13.8252 0 12.8162 0 11.5752V2.5752ZM2 4.2627V9.8877C3.47292 9.8877 4.66667 10.8967 4.66667 12.1377H19.3333C19.3333 10.8967 20.5292 9.8877 22 9.8877V4.2627C20.5292 4.2627 19.3333 3.25371 19.3333 2.0127H4.66667C4.66667 3.25371 3.47292 4.2627 2 4.2627Z" fill="black"/>
</svg>
