<svg width="25" height="27" viewBox="0 0 25 27" fill="none" xmlns="http://www.w3.org/2000/svg">
<path fill-rule="evenodd" clip-rule="evenodd" d="M7.78678 0.303515C9.0559 0.240154 9.46055 0.226074 12.6934 0.226074C15.9263 0.226074 16.3309 0.241328 17.5989 0.303515C18.867 0.365703 19.7325 0.58512 20.4899 0.903098C21.283 1.22812 22.0025 1.73618 22.5975 2.39325C23.2034 3.03742 23.6708 3.81653 23.9694 4.67777C24.2637 5.49912 24.465 6.4378 24.5234 7.81062C24.5818 9.18931 24.5948 9.62814 24.5948 13.1329C24.5948 16.6389 24.5807 17.0777 24.5234 18.4541C24.4661 19.8269 24.2637 20.7656 23.9694 21.5869C23.6708 22.4483 23.2027 23.2287 22.5975 23.8738C22.0025 24.5309 21.283 25.0378 20.4899 25.3616C19.7325 25.6808 18.867 25.899 17.6011 25.9624C16.3309 26.0257 15.9263 26.0398 12.6934 26.0398C9.46055 26.0398 9.0559 26.0246 7.78678 25.9624C6.5209 25.9002 5.65534 25.6808 4.89798 25.3616C4.10374 25.0377 3.38414 24.53 2.78927 23.8738C2.18379 23.2292 1.71523 22.4492 1.41628 21.5881C1.12307 20.7668 0.921826 19.8281 0.863401 18.4553C0.804976 17.0766 0.791992 16.6377 0.791992 13.1329C0.791992 9.62697 0.806057 9.18813 0.863401 7.81296C0.920744 6.4378 1.12307 5.49912 1.41628 4.67777C1.71567 3.81663 2.18459 3.03662 2.79035 2.39208C3.38438 1.73559 4.10326 1.22746 4.8969 0.903098C5.65426 0.58512 6.51982 0.366876 7.78569 0.303515H7.78678ZM17.5027 2.62675C16.2476 2.56456 15.8711 2.55166 12.6934 2.55166C9.51573 2.55166 9.13921 2.56456 7.88415 2.62675C6.72322 2.68425 6.09353 2.89428 5.67373 3.07145C5.1187 3.30612 4.72162 3.58421 4.30507 4.03595C3.91021 4.45255 3.60633 4.9597 3.41571 5.52024C3.25234 5.9755 3.05867 6.65839 3.00565 7.91739C2.94831 9.27848 2.93641 9.68681 2.93641 13.1329C2.93641 16.5791 2.94831 16.9874 3.00565 18.3485C3.05867 19.6075 3.25234 20.2904 3.41571 20.7456C3.60613 21.3053 3.91016 21.8134 4.30507 22.2299C4.68916 22.6582 5.15765 22.9879 5.67373 23.1944C6.09353 23.3716 6.72322 23.5816 7.88415 23.6391C9.13921 23.7013 9.51464 23.7142 12.6934 23.7142C15.8722 23.7142 16.2476 23.7013 17.5027 23.6391C18.6636 23.5816 19.2933 23.3716 19.7131 23.1944C20.2681 22.9598 20.6652 22.6817 21.0817 22.2299C21.4766 21.8134 21.7807 21.3053 21.9711 20.7456C22.1345 20.2904 22.3281 19.6075 22.3812 18.3485C22.4385 16.9874 22.4504 16.5791 22.4504 13.1329C22.4504 9.68681 22.4385 9.27848 22.3812 7.91739C22.3281 6.65839 22.1345 5.9755 21.9711 5.52024C21.7547 4.91831 21.4983 4.48769 21.0817 4.03595C20.6976 3.60776 20.2299 3.27821 19.7131 3.07145C19.2933 2.89428 18.6636 2.68425 17.5027 2.62675ZM11.1733 17.1118C12.0222 17.495 12.9675 17.5468 13.8478 17.2581C14.728 16.9695 15.4885 16.3584 15.9994 15.5292C16.5103 14.7 16.7399 13.7042 16.6491 12.7118C16.5582 11.7194 16.1524 10.7921 15.5011 10.0881C15.0858 9.63808 14.5838 9.29351 14.031 9.07918C13.4783 8.86485 12.8886 8.7861 12.3044 8.84858C11.7203 8.91107 11.1561 9.11325 10.6526 9.44056C10.1492 9.76787 9.71886 10.2122 9.39271 10.7415C9.06657 11.2708 8.8527 11.8719 8.7665 12.5016C8.68029 13.1313 8.72391 13.7739 8.89419 14.3832C9.06448 14.9924 9.3572 15.5531 9.75129 16.0249C10.1454 16.4967 10.631 16.8679 11.1733 17.1118ZM8.36778 8.44188C8.93583 7.82584 9.6102 7.33717 10.3524 7.00378C11.0946 6.67038 11.8901 6.49878 12.6934 6.49878C13.4967 6.49878 14.2922 6.67038 15.0344 7.00378C15.7766 7.33717 16.451 7.82584 17.019 8.44188C17.5871 9.05792 18.0377 9.78926 18.3451 10.5942C18.6525 11.399 18.8108 12.2617 18.8108 13.1329C18.8108 14.0041 18.6525 14.8668 18.3451 15.6717C18.0377 16.4766 17.5871 17.208 17.019 17.824C15.8718 19.0681 14.3158 19.7671 12.6934 19.7671C11.071 19.7671 9.51501 19.0681 8.36778 17.824C7.22056 16.5799 6.57605 14.8924 6.57605 13.1329C6.57605 11.3735 7.22056 9.68603 8.36778 8.44188ZM20.1675 7.48677C20.3083 7.34277 20.4209 7.16959 20.4989 6.97751C20.5768 6.78542 20.6185 6.57833 20.6213 6.36849C20.6241 6.15865 20.5881 5.95033 20.5153 5.75586C20.4426 5.56139 20.3346 5.38473 20.1977 5.23633C20.0609 5.08793 19.898 4.97082 19.7187 4.89193C19.5394 4.81303 19.3473 4.77396 19.1538 4.77702C18.9603 4.78007 18.7693 4.82521 18.5922 4.90974C18.4151 4.99427 18.2554 5.11648 18.1226 5.26914C17.8644 5.56603 17.723 5.96038 17.7285 6.36849C17.7339 6.77659 17.8859 7.16631 18.152 7.45491C18.4181 7.74351 18.7775 7.90827 19.1538 7.91422C19.5301 7.92017 19.8937 7.76684 20.1675 7.48677Z" fill="black"/>
</svg>
