<svg width="25" height="27" viewBox="0 0 25 27" fill="none" xmlns="http://www.w3.org/2000/svg">
<path fill-rule="evenodd" clip-rule="evenodd" d="M0.340332 2.3827C0.340332 1.81073 0.549847 1.26218 0.922785 0.857736C1.29572 0.453292 1.80154 0.226077 2.32895 0.226077H22.1524C22.4137 0.225614 22.6726 0.281064 22.9142 0.389251C23.1558 0.497439 23.3753 0.656239 23.5603 0.856561C23.7452 1.05688 23.8918 1.29479 23.9919 1.55667C24.0919 1.81855 24.1433 2.09924 24.1432 2.3827V23.8808C24.1434 24.1643 24.0922 24.4451 23.9923 24.7071C23.8924 24.9691 23.7459 25.2072 23.5611 25.4077C23.3763 25.6083 23.1568 25.7673 22.9153 25.8758C22.6738 25.9842 22.4149 26.04 22.1535 26.0398H2.32895C2.06771 26.0398 1.80903 25.984 1.56769 25.8755C1.32635 25.7671 1.10708 25.6081 0.922402 25.4077C0.737728 25.2073 0.59127 24.9695 0.491396 24.7077C0.391522 24.4459 0.34019 24.1653 0.340332 23.882V2.3827ZM9.76192 10.0681H12.985V11.8235C13.4503 10.8144 14.6404 9.90623 16.4289 9.90623C19.8576 9.90623 20.6701 11.9162 20.6701 15.604V22.4353H17.2003V16.4441C17.2003 14.3438 16.7351 13.1588 15.5536 13.1588C13.9144 13.1588 13.2328 14.4365 13.2328 16.4441V22.4353H9.76192V10.0681ZM3.81122 22.2745H7.2821V9.90623H3.81122V22.2733V22.2745ZM7.77871 5.87224C7.78526 6.19453 7.73238 6.51499 7.62317 6.81481C7.51397 7.11464 7.35064 7.38779 7.14278 7.61823C6.93492 7.84867 6.6867 8.03177 6.41271 8.15677C6.13871 8.28177 5.84445 8.34616 5.5472 8.34616C5.24995 8.34616 4.95569 8.28177 4.68169 8.15677C4.4077 8.03177 4.15948 7.84867 3.95162 7.61823C3.74376 7.38779 3.58043 7.11464 3.47123 6.81481C3.36202 6.51499 3.30914 6.19453 3.31568 5.87224C3.32853 5.23964 3.56928 4.63763 3.98637 4.19516C4.40346 3.75268 4.96373 3.50491 5.5472 3.50491C6.13067 3.50491 6.69094 3.75268 7.10803 4.19516C7.52512 4.63763 7.76587 5.23964 7.77871 5.87224Z" fill="black"/>
</svg>
