<svg width="20" height="21" viewBox="0 0 20 21" fill="none" xmlns="http://www.w3.org/2000/svg">
<path d="M19 0.0751953H4C3.46957 0.0751953 2.96086 0.285909 2.58579 0.660982C2.21071 1.03605 2 1.54476 2 2.0752V5.0752H0V7.0752H2V9.0752H0V11.0752H2V13.0752H0V15.0752H2V18.0752C2 18.6056 2.21071 19.1143 2.58579 19.4894C2.96086 19.8645 3.46957 20.0752 4 20.0752H19C19.2652 20.0752 19.5196 19.9698 19.7071 19.7823C19.8946 19.5948 20 19.3404 20 19.0752V1.0752C20 0.809979 19.8946 0.555625 19.7071 0.368088C19.5196 0.180552 19.2652 0.0751953 19 0.0751953ZM11 3.0742C12.648 3.0742 14 4.4252 14 6.0742C13.9971 6.86905 13.6801 7.63053 13.1182 8.19267C12.5562 8.75481 11.7948 9.07203 11 9.0752C9.353 9.0752 8 7.7222 8 6.0742C8 4.4252 9.353 3.0742 11 3.0742ZM17 16.0752H5V15.3252C5 13.1062 7.705 10.8252 11 10.8252C14.295 10.8252 17 13.1062 17 15.3252V16.0752Z" fill="black"/>
</svg>
