<svg width="24" height="26" viewBox="0 0 24 26" fill="none" xmlns="http://www.w3.org/2000/svg">
<path d="M0.194824 12.9821C0.194824 18.4922 3.37944 23.1968 7.86132 25.0478C7.75222 24.04 7.63618 22.3783 7.88611 21.2123C8.10133 20.2099 9.2756 14.8256 9.2756 14.8256C9.2756 14.8256 8.92153 14.0566 8.92153 12.9175C8.92153 11.1321 9.87563 9.79837 11.0648 9.79837C12.0764 9.79837 12.5644 10.6212 12.5644 11.6075C12.5644 12.7099 11.9167 14.3577 11.5825 15.8861C11.3038 17.165 12.1746 18.2083 13.337 18.2083C15.4425 18.2083 17.0621 15.8001 17.0621 12.3238C17.0621 9.2466 15.023 7.09653 12.1121 7.09653C8.74202 7.09653 6.76341 9.83816 6.76341 12.6723C6.76341 13.7769 7.15517 14.96 7.64511 15.6043C7.68688 15.653 7.71639 15.7125 7.73081 15.7771C7.74523 15.8417 7.74406 15.9092 7.72743 15.9732C7.63717 16.3798 7.43683 17.2521 7.39815 17.4306C7.34559 17.6651 7.22657 17.7157 7.00144 17.6016C5.5217 16.8552 4.59735 14.5094 4.59735 12.625C4.59735 8.57114 7.31187 4.84966 12.4245 4.84966C16.5345 4.84966 19.729 8.02583 19.729 12.27C19.729 16.6982 17.1553 20.2626 13.5809 20.2626C12.3799 20.2626 11.2522 19.585 10.8654 18.7858C10.8654 18.7858 10.2714 21.2403 10.1275 21.8405C9.84786 23.0064 9.07228 24.4821 8.59127 25.32C9.70008 25.6899 10.8763 25.8889 12.0962 25.8889C18.6688 25.8889 23.9976 20.1099 23.9976 12.9821C23.9976 5.85425 18.6688 0.0751953 12.0962 0.0751953C5.52368 0.0751953 0.194824 5.85425 0.194824 12.9821Z" fill="black"/>
</svg>
