<svg width="21" height="21" viewBox="0 0 21 21" fill="none" xmlns="http://www.w3.org/2000/svg">
<path d="M19.91 12.4953L17.41 16.8253C16.92 17.6853 16.01 18.1353 15.09 18.0753H13.09V20.0753L10.59 15.5753L13.09 11.0753V13.0753H15.91L13.69 9.22525L18.02 6.72525L19.82 9.84525C20.34 10.6153 20.41 11.6453 19.91 12.4953ZM7.3 0.135254H12.3C13.28 0.135254 14.13 0.705254 14.54 1.52525L15.54 3.26525L17.27 2.26525L14.63 6.67525L9.48 6.76525L11.21 5.76525L9.8 3.31525L7.59 7.16525L3.25 4.66525L5.05 1.54525C5.46 0.715254 6.31 0.135254 7.3 0.135254ZM3.14 16.8353L0.64 12.5053C0.15 11.6553 0.22 10.6353 0.73 9.86525L1.73 8.13525L0 7.13525L5.14 7.21525L7.79 11.6353L6.06 10.6353L4.65 13.0753H9.09V18.0753H5.49C5.02151 18.1092 4.5529 18.0109 4.13746 17.7917C3.72203 17.5725 3.37644 17.2411 3.14 16.8353Z" fill="black"/>
</svg>
