<svg width="20" height="18" viewBox="0 0 20 18" fill="none" xmlns="http://www.w3.org/2000/svg">
<path d="M17.15 4.0752C16.9755 3.77292 16.7249 3.52158 16.4232 3.34614C16.1214 3.17071 15.779 3.0773 15.43 3.0752H13V1.0752C13 0.809979 12.8946 0.555625 12.7071 0.368089C12.5196 0.180552 12.2652 0.0751953 12 0.0751953H2C1.46957 0.0751953 0.960859 0.285909 0.585786 0.660982C0.210714 1.03605 0 1.54476 0 2.0752V12.0752C0.000359742 12.4259 0.0929428 12.7704 0.268461 13.074C0.44398 13.3777 0.696262 13.6298 1 13.8052C0.964196 14.7335 1.29861 15.6379 1.92967 16.3196C2.56073 17.0013 3.43674 17.4044 4.365 17.4402C5.29326 17.476 6.19772 17.1416 6.87941 16.5105C7.56111 15.8795 7.9642 15.0035 8 14.0752H11.1C11.2106 14.9119 11.6215 15.6799 12.2561 16.2362C12.8908 16.7925 13.706 17.0992 14.55 17.0992C15.394 17.0992 16.2092 16.7925 16.8439 16.2362C17.4785 15.6799 17.8894 14.9119 18 14.0752C18.5304 14.0752 19.0391 13.8645 19.4142 13.4894C19.7893 13.1143 20 12.6056 20 12.0752V9.0752C19.9984 8.89276 19.9502 8.71376 19.86 8.55519L17.15 4.0752ZM13 5.0752H15.43L17.23 8.0752H13V5.0752ZM4.5 15.0752C4.20333 15.0752 3.91332 14.9872 3.66664 14.8224C3.41997 14.6576 3.22771 14.4233 3.11418 14.1492C3.00065 13.8751 2.97094 13.5735 3.02882 13.2826C3.0867 12.9916 3.22956 12.7243 3.43934 12.5145C3.64912 12.3048 3.91639 12.1619 4.20736 12.104C4.49834 12.0461 4.79994 12.0758 5.07403 12.1894C5.34811 12.3029 5.58238 12.4952 5.7472 12.7418C5.91203 12.9885 6 13.2785 6 13.5752C6 13.973 5.84196 14.3546 5.56066 14.6359C5.27936 14.9172 4.89782 15.0752 4.5 15.0752ZM14.5 15.0752C14.2033 15.0752 13.9133 14.9872 13.6666 14.8224C13.42 14.6576 13.2277 14.4233 13.1142 14.1492C13.0006 13.8751 12.9709 13.5735 13.0288 13.2826C13.0867 12.9916 13.2296 12.7243 13.4393 12.5145C13.6491 12.3048 13.9164 12.1619 14.2074 12.104C14.4983 12.0461 14.7999 12.0758 15.074 12.1894C15.3481 12.3029 15.5824 12.4952 15.7472 12.7418C15.912 12.9885 16 13.2785 16 13.5752C16 13.973 15.842 14.3546 15.5607 14.6359C15.2794 14.9172 14.8978 15.0752 14.5 15.0752Z" fill="black"/>
</svg>
