<svg width="25" height="27" viewBox="0 0 25 27" fill="none" xmlns="http://www.w3.org/2000/svg">
<path d="M12.4742 0.226074C5.90182 0.226074 0.572754 6.00535 0.572754 13.1329C0.572754 20.2605 5.90182 26.0398 12.4742 26.0398C19.0465 26.0398 24.3756 20.2605 24.3756 13.1329C24.3756 6.00535 19.0465 0.226074 12.4742 0.226074ZM18.1938 9.9552C18.2017 10.0906 18.2017 10.2318 18.2017 10.3701C18.2017 14.5994 15.2317 19.4711 9.80432 19.4711C8.13068 19.4711 6.57925 18.9439 5.27222 18.0364C5.51131 18.0652 5.73977 18.0767 5.98418 18.0767C7.36559 18.0767 8.63543 17.5697 9.64758 16.7111C8.35118 16.6823 7.26198 15.7604 6.89007 14.4928C7.34434 14.5648 7.75345 14.5648 8.221 14.4352C7.55348 14.2881 6.95349 13.8949 6.52297 13.3225C6.09245 12.75 5.85795 12.0336 5.85932 11.2949V11.2545C6.24983 11.4937 6.70942 11.6406 7.19026 11.6608C6.78604 11.3686 6.45454 10.9728 6.22516 10.5084C5.99577 10.0441 5.87559 9.52551 5.87526 8.99871C5.87526 8.40234 6.01871 7.85783 6.2764 7.38535C7.01732 8.3745 7.94188 9.1835 8.98999 9.75977C10.0381 10.336 11.1863 10.6667 12.3599 10.7302C11.9429 8.55504 13.4412 6.79475 15.2423 6.79475C16.0924 6.79475 16.8575 7.1808 17.3968 7.8031C18.0636 7.66769 18.7012 7.39687 19.2697 7.03387C19.0492 7.77429 18.5869 8.39946 17.9733 8.79416C18.5683 8.72501 19.1421 8.54639 19.6735 8.29575C19.2723 8.93533 18.7702 9.50288 18.1938 9.9552Z" fill="black"/>
</svg>
